<?xml version="1.0" standalone="no"?>
<!DOCTYPE svg PUBLIC "-//W3C//DTD SVG 20010904//EN"
 "http://www.w3.org/TR/2001/REC-SVG-20010904/DTD/svg10.dtd">
<svg version="1.0" xmlns="http://www.w3.org/2000/svg"
 width="300.000000pt" height="300.000000pt" viewBox="0 0 300.000000 300.000000"
 preserveAspectRatio="xMidYMid meet">
<metadata>
Created by potrace 1.11, written by Peter Selinger 2001-2013
</metadata>
<g transform="translate(0.000000,300.000000) scale(0.100000,-0.100000)"
fill="#000000" stroke="none">
<path d="M379 2996 c-2 -3 -16 -7 -29 -9 -111 -18 -235 -114 -294 -227 -21
-39 -40 -83 -44 -98 -4 -15 -7 -542 -7 -1172 l0 -1145 36 -76 c59 -124 149
-204 278 -247 l64 -22 1131 3 c622 1 1138 5 1146 8 107 40 138 59 202 121 42
40 69 79 96 135 l37 78 0 1145 c0 1250 3 1179 -58 1285 -36 62 -112 137 -169
167 -108 56 -20 52 -1249 55 -624 2 -1137 1 -1140 -1z"/>
</g>
</svg>
